<?xml version="1.0" encoding="utf-8"?>

<!DOCTYPE svg PUBLIC "-//W3C//DTD SVG 1.1//EN" "http://www.w3.org/Graphics/SVG/1.1/DTD/svg11.dtd">
<svg version="1.1" id="Layer_1" xmlns="http://www.w3.org/2000/svg" xmlns:xlink="http://www.w3.org/1999/xlink" x="0px" y="0px"
	 viewBox="0 251 2400 1322" enable-background="new 0 251 2400 1322" xml:space="preserve">
<path fill="#0F0810" d="M1423.36,345.28c1.0601-1.77,3.28-1.94,5.04-2.65c1.23,1.61,2.5,3.23,3.77,4.83
	c-0.39,1.68-0.6901,3.38-0.9601,5.08c0.17,0.61,0.52,1.81,0.7001,2.41c2.1799,0.69,4.39,1.32,6.6,1.99
	c-0.23,1.6-0.4301,3.22-0.61,4.83c-1.67,1-3.39,1.89-5.0601,2.84c0.05,1.51,0.12,3.02,0.2001,4.53c1.72,0.65,3.45,1.3,5.2,1.94
	c-0.02,0.64-0.0699,1.91-0.1,2.55c0.5,0.38,1.48,1.13,1.97,1.51c-0.36,1.91-0.66,3.83-1,5.74c-1.78,0.58-3.8199,0.71-5.3199,1.84
	c-2.79,4.7-2.41,12.28,3.27,14.63c-0.05,0.48-0.15,1.44-0.1901,1.93c-1.1801,1.38-3.2,2.53-2.85,4.66
	c0.22,3.57,0.9199,7.09,1.3099,10.66c1.4601,0.57,3.37,0.52,4.4801,1.78c0.71,1.73,0.46,3.69,0.6599,5.53
	c-0.84,0.04-2.52,0.13-3.37,0.17c0,1.99,0.01,3.97,0.0601,5.97c1.3099-0.07,2.64-0.14,3.99-0.2c0.41,2.02,0.87,4.02,1.13,6.08
	c-0.8201,0.04-2.4601,0.11-3.28,0.14c-0.02,1.95-0.03,3.91-0.01,5.87c1.3-0.03,2.61-0.05,3.9401-0.06c0.4199,2.01,0.9099,4,1.4299,6
	c-0.89,0.08-2.67,0.23-3.5599,0.3c0,1.92,0.0299,3.84,0.08,5.77c0.64,0.03,1.9301,0.08,2.5699,0.11c0.6801,0.97,1.51,1.8,2.51,2.5
	c-0.01,1.12,0.01,2.25,0.0701,3.38c-0.8,0.05-2.42,0.16-3.23,0.22c-0.4701,1.93-0.52,3.93-0.3101,5.9c0.72-0.01,2.15-0.03,2.87-0.04
	c0.65,1,1.3201,2.01,2.01,3.01c-0.11,1.18-0.2,2.36-0.28,3.55c-0.76,0.13-2.27,0.38-3.0299,0.51c-0.05,1.58-0.0701,3.17-0.0801,4.76
	c0.62,0.06,1.87,0.18,2.49,0.24c0.66,0.99,1.48,1.86,2.4501,2.61c0.01,1.08,0.08,2.15,0.2,3.24c-1.05,0.47-2.1,0.95-3.12,1.42
	c-0.02,1.52-0.03,3.05,0,4.59c0.5601,0.03,1.7,0.1,2.26,0.14c0.87,1.19,1.8,2.35,2.59,3.64c0,0.89,0.03,1.78,0.0701,2.68
	c-1.3501,0.54-2.67,1.14-3.9801,1.71c0.13,1.13,0.27,2.27,0.4301,3.42c0.5,0.18,1.51,0.55,2.01,0.73c1.1,1.2,2.26,2.36,3.48,3.48
	c0.0701,0.53,0.1901,1.59,0.26,2.12c-1.41,0.76-2.8,1.53-4.1801,2.31c0.01,1.23,0.04,2.47,0.0801,3.71
	c0.75,0.05,2.24,0.14,2.98,0.18c0,0.64-0.01,1.92-0.01,2.55c1.01,0.47,2.04,0.94,3.08,1.42c-0.34,0.94-0.6699,1.88-0.97,2.83
	c-1.0699,0.47-2.11,0.95-3.14,1.43c0.02,1.01,0.0601,2.02,0.11,3.04c1.6801,1.31,3.2101,2.87,4.8601,4.29
	c0.0299,1,0.0599,2,0.09,3.01c-1.9,1.19-4.1801,2.36-3.29,5.01c0.5701,0.39,1.72,1.17,2.29,1.56c0,0.63-0.01,1.91-0.01,2.55
	c0.75,0.04,2.24,0.13,2.99,0.17c-0.02,1.17-0.02,2.34-0.01,3.52c-1.45,0.51-2.9299,1-4.15,1.95c1.1801,2.19,2.3101,4.41,3.64,6.52
	c0.63,0.02,1.88,0.05,2.51,0.07c-0.02,1.15-0.01,2.31,0.01,3.48c-2.13,0.59-3.89,1.26-4.27,3.6201c1.72,1.1,2.34,2.95,2.7001,4.86
	c0.71,0.03,2.1399,0.08,2.85,0.11c-0.04,1.17-0.0701,2.35-0.0701,3.54c-1.12,0.5-2.21,1.01-3.2899,1.53
	c0.0199,0.62,0.0599,1.85,0.08,2.47c0.53,0.44,1.58,1.32,2.11,1.77c-0.15,0.64-0.4299,1.94-0.5699,2.58
	c0.85,0.05,2.5399,0.14,3.38,0.19c0,1.16,0.0299,2.33,0.09,3.51c-0.96,0.97-2.55,1.2599-3.15,2.54c0.3201,1.08,0.72,2.14,1.21,3.18
	c0,0.7,0.02,2.1,0.03,2.8c1.3,0.19,2.55,0.59,3.89,0.77c-0.02,1.28-0.02,2.58,0,3.88c-0.6899,0.06-2.08,0.17-2.78,0.22
	c-0.37,0.86-0.73,1.73-1.0699,2.6c0.46,0.45,1.4,1.34,1.87,1.79c-0.03,1.17-0.04,2.35-0.02,3.54c1.45,0.02,2.92,0.0601,4.41,0.1
	c0.02,2.87-2.51,4.05-4.4501,5.57c0.4701,1.06,1.05,2.05,1.7001,3.06c-0.27,1.07-0.5601,2.14-0.79,3.23
	c1.47,0.03,2.97,0.07,4.48,0.12c-0.0599,1.18-0.1,2.38-0.12,3.58c-1.14,0.51-2.27,1.03-3.37,1.56c0.4401,2.31,1,4.6,1.4601,6.93
	c1.23-0.04,2.48-0.07,3.75-0.09c-0.02,1.46-0.04,2.93-0.02,4.41c-0.79,0.24-2.37,0.74-3.16,0.99c0.22,1.23,0.5,2.46,0.91,3.68
	c-0.05,1.11-0.0901,2.22-0.1001,3.34c1.4701,0.19,2.9701,0.33,4.4701,0.08c-0.11,1.4-0.2001,2.8-0.28,4.21
	c-0.65,0.08-1.97,0.23-2.63,0.31c-0.28,0.41-0.83,1.22-1.11,1.63c0.47,2.07,0.86,4.15,1.11,6.27c1.72,0.02,3.4399,0.04,5.1899,0.1
	c-0.3799,1.09-0.73,2.2-1.0499,3.32c-1.17,0.35-2.29,0.77-3.38,1.25c0.4399,2.42,0.85,4.85,1.17,7.3c1.72,0.1,3.45,0.21,5.21,0.35
	c-0.34,2.44-2.33,3.69-4.09,5.07c-0.3301,2.19-0.15,4.41-0.1001,6.6299c1.6001,0.01,3.2201,0.03,4.8601,0.0601
	c0.0199,1.21,0.0499,2.4399,0.1,3.68c-1.12,0.47-2.2201,0.95-3.3101,1.44c0.09,2.54,0.1801,5.08,0.3,7.62
	c1.59,0,3.1899,0,4.8199,0.01c0.02,0.73,0.05,2.21,0.0601,2.9399c-1.35,0.9-2.6801,1.8101-4,2.71c0.61,2.13,0.96,4.33,1.2,6.54
	c1.55,0.02,3.12,0.0601,4.71,0.1c0.03,0.69,0.1101,2.06,0.15,2.74c-1.4199,0.81-2.83,1.62-4.22,2.44
	c0.22,2.04-0.1899,4.28,0.6801,6.19c1.33,0.73,2.96,0.51,4.46,0.8c0.02-3.65-0.3101-7.33,0.3-10.94
	c0.7999-0.74,1.6699-1.39,2.62-1.96c-0.5801-6.83,2.1-13.59,0.47-20.34c0.09-1.72,0.47-3.4,0.9399-5.05
	c0.76-0.33,1.53-0.66,2.3201-0.99c0.72,2.8,1.12,5.69,0.96,8.6c0.36,5.74,0.16,11.57,1.45,17.22c2.8601-0.04,5.6101,0.68,6.78,3.59
	c0.3101,3.83,2.13,7.41,1.98,11.31c-0.08,2.68,0.25,5.36,0.77,8.01c-0.08,0.16-0.24,0.48-0.3199,0.65
	c1.28,3.67,2.4399,7.4,2.98,11.27c1.79,4.03,4.97,7.82,4.54,12.48c0.4099,7.8799-1.25,15.68-0.7101,23.55
	c0.77-1.16,1.53-2.33,2.3-3.48c-0.34-0.46-1.03-1.36-1.37-1.81c1.63-5.18,0.79-10.65,0.96-15.98c0.47-0.34,1.41-1.03,1.89-1.37
	c1.66-6.83,0.4301-13.88,1.5699-20.75c3.6901,2.8,2.14,7.82,2.5701,11.79c-0.17,3.28,1.96,5.97,2.88,8.98
	c0.52,4.9-0.74,10.04,1.27,14.73c2.4199,6.79,0.12,14.01,2.02,20.87c0.4199,0.45,1.24,1.34,1.6599,1.79
	c0.27,1.7401,0.5601,3.4901,0.8101,5.25c1.1-7.83,0.23-15.73,0.36-23.59c0.11-4.44-0.6-9.02,0.78-13.33
	c1.7899-5.2,1.34-10.79,2.12-16.16c0.74,1.36,1.49,2.73,2.26,4.11c-0.86-3.31-1.4501-6.74-0.75-10.13
	c0.8099-4.36-0.05-8.89,1.26-13.16c1.72-6.01,1.5199-12.32,2.46-18.46c-0.3201-0.46-0.97-1.38-1.3-1.84
	c0.73-2.37,2.1-4.42,3.05-6.63c0.92,2.25,1.96,4.65,1.63,7.16c-0.65,6.27,0.6799,12.5,1.6,18.68c1.52,0.3,3.04,0.59,4.59,0.89
	c0.4401,1.88,0.28,4.1,1.52,5.7c1.86,1.16,4.21,0.83,6.3201,1.19c0.48-2.2401,0.95-4.47,1.35-6.71c-1.3-0.63-2.62-1.24-3.9-1.83
	c-0.03-1.18-0.03-2.36,0-3.53c1.67-0.03,3.35-0.04,5.0601-0.05c-0.0701-2.1899,0.0699-4.41-0.28-6.5699
	c-0.9601-0.7-1.9-1.4-2.8101-2.1c-0.1-1.12-0.1899-2.23-0.25-3.33c1.48,0.04,2.97,0.09,4.49,0.14
	c0.3301-2.25,0.7201-4.5,0.9401-6.76c-1.4301-0.83-2.8201-1.66-4.2101-2.48c0.02-0.71,0.0601-2.13,0.0801-2.84
	c1.64-0.03,3.29-0.05,4.97-0.05c0.01-2.29,0.02-4.57,0.0601-6.85c-1.04-0.46-2.05-0.92-3.05-1.36
	c-0.04-1.26-0.0601-2.51-0.0601-3.75c1.5801-0.02,3.1901-0.03,4.8101-0.03c0.09-2.24,0.1899-4.48,0.3101-6.7
	c-1.41-0.82-2.8-1.63-4.17-2.44c0.0699-0.68,0.23-2.04,0.2999-2.71c1.5901-0.08,3.1901-0.14,4.8101-0.2
	c0.01-2.25,0.02-4.5,0.05-6.74c-1.03-0.52-2.05-1.03-3.05-1.53c-0.02-1.22-0.02-2.43,0-3.63c1.63-0.05,3.29-0.09,4.96-0.12
	c0-2.14,0-4.28,0.02-6.41c-1.39-0.89-2.75-1.77-4.1-2.67c0.09-0.6801,0.25-2.06,0.33-2.75c1.78-0.02,3.54-0.03,5.36-0.03
	c-0.11-2.32-0.21-4.64-0.5399-6.93c-1.03-0.49-2.04-0.98-3.04-1.46c-0.01-1.22,0.01-2.43,0.04-3.63c1.63-0.02,3.2899-0.03,4.96-0.03
	c-0.01-2.28-0.01-4.55,0-6.81c-0.76-0.13-2.27-0.39-3.03-0.52c-0.09-1.59-0.1699-3.17-0.2-4.74c1.52,0.15,3.0599,0.3,4.63,0.47
	c0.39-2.37,0.34-4.75-0.21-7.09c-1.1801-0.54-2.3301-1.09-3.4701-1.64c0.3301-1.17,0.6801-2.32,1.05-3.47
	c1.4,0.12,2.8199,0.23,4.25,0.34c-0.02-2.45-0.02-4.88-0.01-7.31c-0.75-0.15-2.25-0.44-2.99-0.58c0.01-1.46,0.04-2.91,0.11-4.35
	c1.5601-0.31,3.54,0.89,4.74-0.55c0.17-2.11-0.45-4.16-0.9399-6.17c-2.12-0.78-2.9-2.75-3.39-4.77c1.84-0.03,3.74-0.03,5.58-0.38
	c-0.12-2.38-0.24-4.75-0.36-7.11c-0.6801-0.18-2.02-0.54-2.7-0.72c-0.04-1.18-0.0601-2.36-0.0601-3.53
	c1.77-0.28,3.5701-0.54,5.38-0.8c-0.45-2.2401-0.9301-4.47-1.51-6.67c-1.9299-0.79-2.0699-2.81-2.42-4.55
	c1.6101-0.05,3.2401-0.09,4.89-0.12c-0.14-2.6-0.3099-5.2-0.45-7.79c-0.6901-0.1-2.08-0.3-2.77-0.4
	c-0.0699-1.25-0.12-2.48-0.15-3.71c1.75-0.03,3.51-0.05,5.29-0.07c-0.3-2.46-0.72-4.89-1.4-7.2599c-1.85-0.92-1.97-2.95-2.3099-4.69
	c1.62,0,3.26,0.01,4.9299,0.04c1.13-3.46-0.4399-6.58-2.74-9.11c-0.02-0.73-0.0699-2.19-0.09-2.93c1.51-0.02,3.03-0.03,4.58-0.04
	c0.05-3.21-0.95-6.24-3.11-8.62c-0.08-1.12-0.13-2.22-0.15-3.32c1.7201-0.04,3.4701-0.09,5.24-0.13c0.7001-4.64-4.2-7.37-3.83-11.91
	c1.52-0.01,3.0601-0.01,4.62-0.01c0.1-1.39,0.22-2.77,0.36-4.15c-1.21-1.32-2.41-2.63-3.63-3.9c0.1801-1.15,0.4601-2.27,0.85-3.35
	c1.3501-0.7,2.9501-0.62,4.4501-0.91c-0.0601-1.27-0.1-2.55-0.12-3.81c-2.22-1.68-3.25-4.18-3.34-6.9
	c1.7799-0.32,3.59-0.65,5.4299-0.74c-0.08-1.5-0.14-2.99-0.16-4.49c-1.2799-1.24-2.5499-2.45-3.89-3.6
	c0.02-0.8,0.0701-2.4,0.0901-3.2c1.6599-0.26,3.34-0.5,5.0399-0.74c-0.0599-1.59-0.0699-3.17-0.08-4.74
	c-1.03-0.93-2.03-1.85-3.01-2.78c-0.01-1.24,0-2.48,0.03-3.71c1.41,0.04,2.84,0.09,4.28,0.14c0.1599-1.79,0.47-3.55,0.9199-5.29
	c-1.85-1.11-3.84-2.51-3.86-4.89c-0.38-1.89,2.16-2.18,3.4-2.71l1.33-0.24c0.61-3.97,1.51-7.91,1.6901-11.93
	c-0.4401-1.44-1.8201-2.39-2.67-3.57c-0.0499-0.57-0.13-1.71-0.1799-2.28c1.24-1,2.49-2,3.7699-2.98
	c0.27-4.17,1.1901-8.86-1.71-12.36c-0.6,0.03-1.8099,0.1-2.41,0.13c-0.62-1.34-1.3999-2.58-2.2899-3.72
	c-0.52-2.11-0.92-4.24-1.27-6.37c2.6799-0.7,5.45-0.82,8.22-0.47c-0.1799-2.44-0.52-4.86-1.33-7.17c-1.66-0.43-3.3-0.91-4.92-1.38
	c-0.01-1.75-0.02-3.51,0.01-5.25c2.33-0.29,4.65-0.64,7-0.96c0.02-3.11-0.63-6.33,0.17-9.37c1.09-1.98,3.76-4.66,6.01-2.59
	c3.0399,1.97,3.21,5.76,2.1499,8.88c1.4601,2.69,4.28,3.61,7.2001,3.76c-0.24,1.68-0.46,3.36-0.67,5.05
	c-2.3099,0.66-4.02,2.26-5.1699,4.32c0.3999,1.05,0.8099,2.12,1.24,3.19c1.2799,0.44,2.5699,0.89,3.8999,1.32
	c2.16,2.79,2.42,6.22,2.25,9.63c-2.47,0.76-5.96,0.89-6.7799,3.88c-0.78,3.3,0.39,6.63,0.9299,9.88c1.03,1,2.0801,1.98,3.16,2.97
	c-0.78,2.21-1.79,4.36-3.33,6.15c0.51,3.67,1.23,7.31,2.09,10.92c1.1799,0.17,2.37,0.34,3.59,0.51c0.47,1.41,0.96,2.82,1.47,4.23
	c-1.83,1.57-3.37,3.43-4.2699,5.68c1.6799,1.02,3.46,1.96,5.0099,3.22c0.0701,1.33,0.1801,2.66,0.27,4
	c-2.2,0.62-2.8099,2.77-2.6899,4.8c1.46,1.26,3.0699,2.33,4.71,3.37c0.0601,2.41-0.6799,4.48-2.98,5.57
	c0.24,1.14,0.5,2.28,0.79,3.43c2.14,1.35,4.52,3.32,3.98,6.19c-1.05,0.61-2.05,1.29-2.99,2.04c-0.01,1.36,0.01,2.72,0.0499,4.09
	c0.6001,0.08,1.78,0.23,2.37,0.31c0.62,0.98,1.26,1.96,1.92,2.94c-0.12,1.29-0.23,2.58-0.3199,3.88c-0.75,0.06-2.24,0.19-2.99,0.25
	c-0.01,1.44,0,2.89,0.0399,4.35c4,0.05,5.5,3.94,5.24,7.4c-0.84,0.04-2.51,0.13-3.35,0.17c-0.02,1.58-0.01,3.16,0.01,4.74
	c0.67,0.07,2,0.2,2.66,0.27c0.73,1.15,1.49,2.29,2.2799,3.44c0,1.07,0.01,2.15,0.05,3.23c-0.6799,0.08-2.04,0.22-2.72,0.3
	c-0.39,0.9-0.76,1.82-1.11,2.74c0.2799,0.49,0.86,1.48,1.14,1.97c0.5299,0.09,1.6,0.27,2.13,0.35c0.9099,1.24,1.86,2.45,2.86,3.65
	c-0.78,2.83-4.02,3.8799-4.79,6.75c1.09,0.5699,2.1899,1.1299,3.3199,1.7c0.8101,1.21,1.64,2.42,2.5,3.63
	c-0.08,0.78-0.24,2.32-0.3199,3.1c-0.76,0.0099-2.27,0.05-3.03,0.07c0,1.08,0.03,2.17,0.1,3.2599c2.01,1.31,3.53,3.19,4.9401,5.12
	c-0.05,1.1-0.08,2.2-0.09,3.32c-0.74,0.1-2.2201,0.29-2.9701,0.39c0.02,1.05,0.0601,2.11,0.12,3.17
	c1.9801,1.34,3.4801,3.22,4.9,5.13c0.01,0.55,0.05,1.65,0.0601,2.2c-1.55,1.2-3.1801,2.28-4.78,3.39c1.1801,0.85,2.38,1.7,3.63,2.52
	c0.11,0.42,0.34,1.27,0.45,1.6899c2.0601,1.22,1.8401,3.61,2.03,5.67c-0.84,0.07-2.52,0.21-3.35,0.27
	c-0.03,1.21-0.03,2.42-0.01,3.64c0.74,0.09,2.22,0.26,2.96,0.34c0.03,0.55,0.0901,1.66,0.12,2.21c2.49,0.85,2.01,3.48,2.2301,5.57
	c-0.8301,0.03-2.4901,0.1-3.3101,0.14c-0.03,1.25-0.03,2.51-0.01,3.78c0.8201,0.08,2.45,0.25,3.27,0.33
	c-0.4,0.85-0.77,1.72-1.12,2.59c1.11,0.47,2.24,0.95,3.38,1.44c-0.51,1.96-1.52,3.64-3.4501,4.46c-0.0399,0.65-0.1,1.95-0.13,2.6
	c0.51,0.23,1.54,0.68,2.0601,0.91c0,0.73,0.01,2.19,0.01,2.92c0.99,0.28,2,0.56,3.02,0.85c-0.05,1.27-0.0801,2.56-0.0901,3.85
	c-0.6699,0.07-2,0.21-2.6699,0.28c-0.4,0.53-1.21,1.59-1.61,2.13c1.0599,0.75,2.1899,1.4,3.2899,2.16
	c0.01,0.58,0.04,1.74,0.0601,2.31c1.14,0.51,2.29,1.04,3.46,1.58c-0.27,2.54-2,3.83-4.4,4.27c0.02,0.42,0.0701,1.26,0.1001,1.67
	c1.76,1.1,1.96,3.15,2.38,5c0.6899,0.18,2.0699,0.53,2.76,0.7c-0.0901,1.28-0.16,2.56-0.2201,3.84
	c-0.7799,0.12-2.3199,0.34-3.1,0.45c0,0.61,0,1.81,0,2.42c0.51,0.41,1.52,1.23,2.03,1.65c-0.04,1.26-0.0601,2.54-0.0601,3.83
	c0.55-0.32,1.66-0.95,2.2101-1.26c0.2899,1.32,0.84,2.63,0.85,4.02c-1.3201,0.92-2.76,1.64-4.0801,2.53c1,1,2,2,3.03,3.01
	c-0.02,0.56-0.0599,1.66-0.08,2.21c0.99,0.59,2.04,1.12,3.14,1.59c0.8099,3.13-2.72,4.13-4.65,5.7c0.66,0.36,1.97,1.08,2.62,1.44
	c-0.03,1.4-0.04,2.8-0.02,4.22c1.38,0.04,2.86-0.13,4.14,0.6c-0.48,1.26-0.58,2.61-0.88,3.92c-0.8,0.01-2.41,0.03-3.22,0.04
	c0.04,0.51,0.11,1.55,0.15,2.07c2.09,1.22,1.7,3.6,1.8099,5.65c0.85,0,2.55-0.01,3.4-0.01c-0.12,1.36-0.22,2.74-0.3101,4.12
	c-0.7699,0.05-2.2999,0.15-3.0699,0.21c0,0.61,0,1.83,0,2.44c0.45,0.4,1.35,1.19,1.8,1.59c-0.3501,1.23-0.7301,2.45-1.03,3.7
	c1.4-0.01,2.8199-0.01,4.26,0c-0.0601,1.28-0.1,2.57-0.11,3.87c-0.76,0.1-2.26,0.28-3.02,0.37c0.5399,2.55,1,5.11,1.34,7.71
	c1.23,0,2.47,0.02,3.74,0.05c0.01,0.72,0.03,2.16,0.04,2.88c-1.17,0.7-2.35,1.37-3.25,2.38c0.39,0.93,0.76,1.89,1.09,2.89
	c-0.02,1.28-0.03,2.56-0.04,3.85c0.91-0.01,2.7201-0.03,3.62-0.04c-0.08,1.34-0.1399,2.7-0.1799,4.05
	c-0.89,0.09-2.6801,0.26-3.5701,0.35c0.4701,0.96,0.9501,1.92,1.4601,2.89c-0.04,1.61-0.0701,3.22-0.0801,4.85
	c1.38-0.08,2.78-0.14,4.2101-0.1899c-0.05,1.37-0.0901,2.75-0.11,4.14c-0.8201,0.05-2.4501,0.15-3.27,0.2
	c0.5399,2.6,1.02,5.21,1.38,7.85c0.59,0.01,1.78,0.01,2.37,0.02c0.21-0.64,0.62-1.91,0.83-2.54
	c-1.5699-5.55,0.72-11.19-0.4299-16.73c0.3999-2.02,1.1-3.98,2.75-5.33c0.2799-6.6,1.6699-13.16,0.88-19.77
	c0.0699-1.89-0.04-6.36,2.8999-5.25c0.74,1.73,1.24,3.57,1.8,5.39c-0.15,1.96-0.27,3.94-0.28,5.92c0.4501-1.55,0.86-3.12,1.28-4.68
	c0.7,0,2.11-0.01,2.8099-0.01c1.8,7.89-1.0199,16.52,2.91,23.9c1.74,3.46,0.5801,7.45,1.13,11.15c0.55,3.92,0.98,7.88,0.49,11.85
	c0.5701,0.05,1.7101,0.15,2.28,0.2c0.02,3.72-0.45,7.5699,0.84,11.14c1.7101,4.47,0.79,9.38,2.13,13.94
	c-0.25,0.42-0.74,1.27-0.98,1.7c0.03,5.71-0.05,11.42,0.2,17.14c-0.0699,2.04,0.8401,3.9,1.6901,5.72
	c0.01-4.58-0.49-9.25,0.9301-13.68c1.6599-5.59,1.1799-11.47,1.1599-17.21c0.5-0.28,1.51-0.83,2.01-1.1
	c0.03-1.32,0.09-2.63,0.17-3.93c2.5399-0.21,4.91,0.73,5.38,3.51c0.62,1.14,1.74,2.12,1.59,3.6c0.11,5.77-0.0599,11.66,1.84,17.21
	c1.26,3.52,0.8501,7.27,1.0601,10.93c0.09,3.5,2.62,6.38,2.9,9.85c0.3999,4.96-0.5601,10.06,0.89,14.92
	c1.2799,4.29,1,8.87,2.3899,13.15c1.64,5.19,0.49,10.68,0.99,16.01c0.1901,1.3,1.76,1.77,2.54,2.75c1.23,4.96,0.62,10.1,1.04,15.16
	c-1.6,7.59-0.48,15.42-0.6901,23.12c-0.4099,3.47,1.74,6.43,4.15,8.69c-0.24,0.5-0.71,1.5-0.9399,2
	c1.2799,6.35,0.52,12.85,0.72,19.28c-0.61,14.35,0.21,28.71,0.03,43.08c1.27,1.04,2.5299,2.1,3.84,3.16c0.05,1.47,0,2.96-0.05,4.45
	c-0.46,0.44-1.37,1.32-1.83,1.76c-0.13,4.92-0.25,9.94,1.16,14.73c0.98,0.3,1.97,0.6,3,0.92c0.36-0.2,1.09-0.6,1.45-0.8
	c3.0701,0.66,6.2001,1.04,9.37,0.9c7.05-0.28,14.02,1.2,21.0801,0.96c4.5199-0.2,9,1.09,13.5299,0.44
	c4.0601,0.5,8.15,0.66,12.26,0.56c3.02-0.1,6.11,1.3199,9.0601,0.08c1.37,0.18,2.74,0.41,4.14,0.66c0.09-0.59,0.2699-1.78,0.36-2.37
	c0.8199,0.81,1.64,1.64,2.49,2.48c2.14-7.15,0.64-14.69,1.08-22.01c0.41-3.63-0.99-6.92-2.4399-10.12c0.95-1.37,2.02-2.67,2.96-4.06
	c1.01-6.57-0.53-13.2-0.52-19.8c0.02-10.67,0.03-21.34,0.03-32.01c0.12-2.58-1.08-4.9-2.08-7.17c0.25-0.43,0.75-1.28,1.0099-1.71
	c-1.1-6.16-1.5199-12.51-4.62-18.1c0.91-0.81,4.03-0.78,3.1901-2.77c-0.05-1.82-1.5601-4.27,0.1899-5.65
	c1.5901-1.8,3.1001,0.9901,4.5701,1.71c1.29-1.52,2.62-3.03,3.97-4.52c1.6,0.38,3.26,0.71,4.9301,0.87
	c1.37-7.0099,1.39-14.3799-1.49-21.03c1.0199-0.9,2.12-1.77,3.1799-2.65c1.23-5.58,1.37-11.32-0.5-16.77
	c3.42-2.79,2.6-7.41,3.0601-11.29c-2.4401-5.82,2.2-11.1,1.4199-16.95c-0.09-2.67-1.2999-5.45,0.0701-7.97
	c2.1-4.33,0.4-9.2,1.27-13.75c1.3099-6.03,0.49-12.27,1.87-18.3c1.95-20.35,3.4399-40.74,5.4199-61.09
	c0.67-4.34,0.77-8.77-0.0599-13.1c1.71-3.8,1.7899-7.98,1.59-12.07c-1.27-0.66-2.5-1.26-3.64-2.05c-0.21-1.44-0.4-2.87-0.47-4.3
	c1.42,0.08,2.85,0.18,4.3099,0.28c0.6101-3.85,1.03-7.74,1.38-11.62c0.5-0.01,1.51-0.02,2.02-0.02c0.6,3.66,1.15,7.34,1.52,11.04
	c1.3199-0.02,2.66-0.04,4.02-0.06c0.12,1.58,0.27,3.17,0.41,4.77c-1.39,0.81-3.62,0.91-4.02,2.76c-0.25,2.82,0.34,5.6,0.76,8.38
	c1.2,1.8,1.4399,3.88,0.45,5.84c1.92,22.79,4.95,45.49,7.22,68.24c-0.01,4.4,1.63,8.62,1.1801,13.04
	c-0.27,3.45,1.89,6.56,1.58,10.01c-0.22,3-0.59,6.09,0.51,8.99c0.5,2.16,2.0701,4.21,1.42,6.52c-1.13,4.03-0.2001,8.15,0.5699,12.16
	c0.49,0.46,1.48,1.38,1.98,1.84c-0.6499,4.42-1.7999,8.95-0.8099,13.42c0.71,2.66,4.78,4.4,3,7.45
	c-2.3,5.67-2.64,13.28,2.7999,17.31c-2.48,5.96-2.9199,12.55-1.1,18.77c3.2101,1.28,5.8301,3.65,7.51,6.68
	c0.49-2.45,2.53-3.64,4.7101-4.48c2.0399,3.75,1.84,8.47,4.85,11.72c0.0599,2.97-3.12,4.6-3.05,7.5
	c-0.0599,4.45-1.04,8.9-0.3099,13.34c-0.5801,1.21-1.7201,2.26-1.74,3.67c-0.17,17.89,1.0699,35.77,0.87,53.67
	c1,0.93,2.0299,1.87,3.08,2.83c0,0.55,0,1.64,0,2.19c-0.51,0.43-1.52,1.29-2.02,1.72c0.35,8.25-0.9399,16.66,1.11,24.77
	c0.7001,0.76,1.42,1.54,2.17,2.32c0.37-0.33,1.12-1,1.5-1.34c2.5,0.44,5.0699,1.05,7.63,0.45c6.13-1.21,12.39-1.39,18.63-1.34
	c0.4299-0.25,1.2999-0.7599,1.73-1.0099c2.4,0.63,4.84,0.4,7.27-0.06c0.4399-0.23,1.33-0.6801,1.77-0.91
	c2.2-0.02,4.4099-0.1,6.6499-0.18c0.9401-0.62,1.87-1.28,2.79-1.98c0.89,0.5,1.84,0.93,2.86,1.29c0.5-0.4,1.49-1.19,1.99-1.58
	c0.5601,0.34,1.67,1.03,2.2201,1.37c0.3999-0.24,1.1899-0.73,1.58-0.98c3.48-0.3,8.88,1.91,10.29-2.64
	c0.4199,1.2,1.3999,1.85,2.45,2.59c1-0.29,2.03-0.56,3.08-0.82c0.5801,0.02,1.75,0.08,2.3301,0.11c0.4299-0.33,1.2799-0.98,1.71-1.3
	c4.08,1.17,8.29-0.19,12.45,0.05c0.4501-0.32,1.3401-0.96,1.79-1.28c0.76,0.16,2.28,0.5,3.04,0.67c0.47-0.42,1.4299-1.27,1.9-1.7
	c0.62,0.31,1.87,0.93,2.49,1.23c0.36-0.23,1.09-0.7,1.45-0.9301c2.96,0.12,5.9401,0.1,8.92-0.11
	c3.0399-0.77,6.1799-0.84,9.3199-0.76c0.48-0.34,1.4301-1.04,1.91-1.38c0.78,0.21,2.35,0.64,3.14,0.85
	c0.4099-0.77,1.24-2.31,1.6599-3.08c0.8401,1,1.66,1.88,2.63,2.84c0.92-0.63,1.7001-1.45,2.3301-2.47
	c0.75,0.25,1.5499,0.48,2.38,0.68c4.97-0.57,9.97-0.02,14.95-0.65c0.4501-0.44,1.35-1.33,1.8101-1.78
	c0.2899-0.03,0.87-0.1,1.1599-0.13c0.92,0.77,1.7301,1.67,2.4501,2.68c0.22-0.79,0.6699-2.38,0.9-3.17
	c1.2699,0.63,2.5199,1.27,3.83,1.93c0.37-0.78,1.12-2.36,1.49-3.14c0.98,0.97,1.86,1.96,2.84,3.01c0.79-1.3,1.5701-2.61,2.4401-3.88
	c0.3199,0.56,0.96,1.68,1.28,2.2401c-0.2201-1.9301,1.0699-3.26,2.3099-4.52c0.1901-1.71,0.36-3.41,0.55-5.1
	c-1.1801-0.53-2.3501-1.05-3.49-1.56c-1.04-3.42,2.49-4.94,4.58-6.8199c3.1,1.42,5.9399,3.54,6.11,7.27
	c0.58,0.6,1.1901,1.22,1.83,1.84c-0.5199,1.68-1.01,3.37-1.5,5.07c1.02,0.04,3.0601,0.1,4.0801,0.13
	c-0.24,3.14-3.2101,4.79-4.3301,7.53c1.51,0.17,3.04,0.35,4.6001,0.53c0.0599,1.9,0.13,3.81,0.22,5.73
	c-0.6901,0.07-2.09,0.22-2.79,0.29c-0.46,0.97-0.89,1.94-1.29,2.93c3.64,6.7401,6.04,14.16,10.52,20.4301
	c2.28,6.72,5.8501,12.8799,9.24,19.08c0.73-0.2,2.1799-0.6,2.9001-0.79c0.8499,4.3,1,8.79,2.8098,12.86
	c1.9202-6.6001,1.0601-13.5701,1.55-20.34c0.6799-0.01,2.04-0.04,2.72-0.05c1.04-4.81,1.02-9.75,1.79-14.59
	c0.6699-3.86-1.52-7.82,0.6699-11.44c1.03-0.02,2.0801-0.02,3.1602-0.02c2.3398,3.57-0.1201,7.57,1.01,11.38
	c1.3999,6.74,1.6499,13.64,2.52,20.47c0.3298,2.7,1.8699,5.07,2.4099,7.7399c0.52,2.7101,0.45,5.4801,0.6699,8.24
	c3.9302,2.9701,1.0901,8.3301,3.03,12.3501c0.26-2.7001,0.04-5.4801,0.79-8.1001c3.78-8.6899,0.6799-18.41,2.8401-27.4299
	c1.3999,0.99,4.0898,0.99,4.21,3.21c1.0901,8.01-0.1899,16.42,2.3699,24.1901c0.5601-8.25,1.29-16.52,0.98-24.78
	c1.05-0.15,2.1301-0.28,3.2302-0.4c0.0698,7.01,1,13.98,1.7698,20.9501c0.7402,4.09-0.6499,8.75,2.4902,12.11
	c0.1199,3.0299-0.2202,6.2,0.97,9.1c2.1499,5.37,0.1799,11.35,1.99,16.83c0.75-0.03,2.24-0.1,2.99-0.13
	c1,10.05,1.97,20.13,4.8699,29.85c0.52-4.9299,0.8601-9.88,0.71-14.84c0.7002,0.0801,2.0901,0.23,2.79,0.3
	c0.3301,5.0399,0.76,10.08,1.1001,15.13c1.6299-6.9401,2.53-14.05,2.0999-21.1801c1.0601-0.01,2.1501-0.01,3.26,0.01
	c-0.7798,11.55,3.8301,22.51,4.1301,33.97c0.8799-0.24,2.6399-0.73,3.52-0.98c0.9199,1.52,1.8999,3.03,2.8599,4.5701
	c1.0601,0.08,2.1501,0.1699,3.27,0.2699c1.4302,1.2401,2.8701,2.5,4.3,3.79c0.3501-3.88,0.8701-7.73,1.5-11.5699
	c1.1401-0.2101,2.3101-0.42,3.5-0.61c2.97-8.76-1.3201-17.8201,0.78-26.63c0.8501-7.89,3.3601-15.78,1.8899-23.76
	c1.25-0.0801,2.53-0.1001,3.8401-0.05c0.1399,1.1801,0.1599,2.38,0.05,3.6c0.96,1.88,2.1399,3.8,1.99,6.03
	c-0.6101,7.45,1.8799,14.63,3.0999,21.89c1.54,6-0.8398,12.16,0.6101,18.1899c0.6599,0.0601,1.97,0.1801,2.6201,0.24
	c1.4099,0.79,4.7898,3.6201,4.7,0.3c1.3899-11.21-2.54-22.54,0.2-33.67c1.2-4.73,2-9.6899,0.73-14.49
	c1.1301-0.14,2.29-0.25,3.47-0.36c-0.02,4.88,0.9199,9.6901,2.1001,14.41c1.8298,5.52,0.3101,11.61,3.21,16.85
	c0.21,4.63,0.46,9.3301,2.3301,13.6901c3.5999,4.24,2.5498,9.97,3.22,15.1c1,7.29-1.75,14.65,0.6399,21.84
	c1.98,0.04,3.97,0.15,6.01,0.14c0.8901,1.09,1.8901,2.0699,2.8701,3.16c1.53-6.12,0.4199-12.4601,0.1299-18.65
	c-1.25-5.95-0.1599-12.05,1.5901-17.77c1.6399-5.37,1.4399-11.0599,1.4299-16.61c1.1301,0.03,2.3,0.0599,3.5,0.12
	c-0.0801,3.9399-0.1699,7.92,0.53,11.83c0.71,3.74,2.29,7.25,3.1399,10.9701c2.1201,7.5599-1,15.33,0.51,22.99
	c-0.4099,2.25,1.78,2.98,3.29,4.0699c0.3801,2.42,0.8,4.85,1.55,7.21c2.3101,6.41,0.6299,13.3101,1.5901,19.9301
	c-0.0901,10.64,2.4299,21.09,2.25,31.75c-0.2102,6.35,0.46,12.6801,0.3699,19.04c0.22,1.5699-0.49,3.6699,0.97,4.84
	c0.4399-0.71,1.3-2.13,1.74-2.83c0.51,0.01,1.52,0.0399,2.03,0.0599c0.24,4.17,0.1602,8.47,1.6001,12.47
	c9.55,0.13,19.0798-0.85,28.6399-0.5599c5.8401,0.27,11.6401-0.8301,17.5-0.5801c18.1702-0.4399,36.3201-1.71,54.52-1.4099
	c6.6699,0.2,13.26-1.2101,19.95-0.9301c8.3601,0.23,16.6602-1,25.03-1.03c8.02-0.34,16.1001,0.4601,24.1001-0.6699
	c7.6299-0.42,15.29-0.28,22.95-0.42V1573H0v-442.78c1.6-0.83,1.6-1.4199,0-1.77V1116.16c2.38-1.3201,5.05-1.4,7.45-0.0701
	c2.49-3.47,4.33-7.71,8.34-9.6899c0.16,2.0499,0.28,4.13,0.59,6.1899c0.79,1.1,2.23,1.4301,3.32,2.16c0.12,1.63-0.04,3.23-1.54,4.23
	c3.89,0.03,7.51,1.6,11.27,2.41c0.06,0.59,0.17,1.77,0.23,2.36c-1.97,0.27-3.95,0.5601-5.93,0.84c-1.22-0.27-2.44-0.52-3.66-0.75
	c0.32,0.65,0.96,1.9501,1.28,2.61c2.23,0.04,4.46,0.1901,6.64,0.7001c0.84,0.0399,2.52,0.12,3.36,0.1699
	c-1.34-4.1599-1.02-8.48,0.61-12.48c1.3,0.0901,2.61,0.2001,3.92,0.3201c-1.06-3.37,0.35-6.79,0.41-10.1801
	c0.44-3.83-1.32-7.52-0.76-11.33c0.27-3.14-0.03-6.26-0.47-9.34c0.8-0.1101,2.4-0.3201,3.19-0.4301c-0.51-4.41-1.04-8.8199-1-13.26
	c-2.63-0.0599-5.27-0.11-7.9-0.14c-0.06-0.5599-0.19-1.6699-0.25-2.23c1.52-0.34,3.04-0.6801,4.56-0.97
	c-0.13-1.36-0.25-2.7101-0.37-4.05c0.62-0.0499,1.87-0.1699,2.5-0.22c0.04,1.73,0.1,3.47,0.16,5.22c1.54-0.95,2.27-2.5,2.67-4.1799
	c0.61-2.88,1.2-5.78,0.9-8.7201c-1.73-2.33-1.13-5.13-0.89-7.8099c2,0.13,4,0.3099,5.99,0.49c0.05,2.1799,0.06,4.37,0.05,6.5699
	c-0.48-0.01-1.46-0.01-1.94-0.0199c-0.16,4.1699-0.13,8.34,0.01,12.5199c3.07,0.17,6.14,0.3101,9.21,0.4801
	c0,0.9199,0,1.85,0,2.7899c-2.13,0.12-4.27,0.25-6.4,0.37c0.51,5.11-0.11,10.27,0.74,15.36c-0.85,5.8301-0.87,11.78-0.16,17.63
	c0.45,2.78-0.32,5.53-0.63,8.3c-0.73,5.33-0.79,10.75-0.03,16.09c3.14-0.86,6.37-1.2,9.62-1.24c0.08-0.58,0.25-1.73,0.34-2.3099
	c1.04-0.04,2.09-0.0801,3.13-0.1001c0.21,0.55,0.63,1.63,0.84,2.1801c3.2,0.4399,6.4,0.0699,9.57-0.39
	c15.59-0.97,31.15-2.37,46.75-3.37c-0.61-0.3-1.83-0.9-2.44-1.2c-0.45-5.78,0.43-12.42,5.75-15.8101
	c4.54,3.55,2.79,9.6901,3.03,14.67c1.57-5.02,3.41-10.3,2.04-15.5901c2.01-5.1,3.44-10.4299,3.29-15.95
	c2.41-1.41,1.57-4.55,1.83-6.9c-0.7-0.1699-2.11-0.5-2.81-0.6699c-0.14-2.14-0.26-4.28-0.39-6.4c0.97-1.0601,1.95-2.11,2.9-3.16
	c-0.99-1.1899-1.7-2.53-2.18-3.97c1.27-1.62,2.5-3.25,3.72-4.89c-3.39-1.24-8.3,0.3-10.11-3.5699c2.81-0.7001,5.67-1.14,8.54-1.52
	c0.11-3.5701-0.29-7.8,3.14-10.02c-0.19-1.47-0.4-2.9401-0.59-4.39c-2.44,0.04-4.88,0.08-7.31,0.14c0.16-1.47,0.33-2.92,0.5-4.37
	c1.06-0.0701,2.13-0.13,3.2-0.1801c-0.05,0.53-0.15,1.5701-0.2,2.0901c0.95,0.11,2.84,0.3199,3.79,0.4199
	c0.02-2.01,0.03-4,0.03-5.99c-1.26,0.11-2.52,0.23-3.78,0.38c-0.42-1.34-0.87-2.64-1.29-3.95c0.57-1.11,1.15-2.23,1.72-3.3201
	c1.95-0.14,3.91-0.26,5.87-0.35c2.76,0.53,5.55,0.86,8.35,1.11c0.08,2.0701,0.14,4.14,0.19,6.24c-2.24,0.3201-4.48,0.7001-6.7,1.16
	c-0.05,1.46-0.12,2.9301-0.18,4.4301c1.37,0.1799,2.75,0.3899,4.12,0.6299c-1.46,1.3101-3.11,2.3501-4.94,3.1001
	c0.11,1.1,0.21,2.22,0.32,3.35c2.66,2.67,3.13,6.28,2.85,9.9c2.68,0.1599,5.35,0.4399,8.01,0.86c-0.29,0.89-0.57,1.78-0.85,2.7
	c-3.37-0.03-6.7,0.52-9.82,1.8101c2.1,0.46,4.2,0.86,6.32,1.22c-0.12,0.72-0.36,2.1801-0.48,2.91c1.5,0.34,2.99,0.72,4.49,1.13
	c-2.74,0.7999-5.03,2.71-7.92,3.0699c0.01,2.4401,0.05,4.88,0.08,7.34c1.36,0.0701,2.74,0.14,4.11,0.2301
	c-0.05,0.48-0.14,1.4399-0.18,1.9199c-1.17,0.1801-2.33,0.38-3.49,0.59c0.31,7.0801-0.29,14.15-0.97,21.2001
	c0.16-1,0.47-3.01,0.63-4.01l1.52,0.01c0.2,1.74,0.4,3.52,0.6,5.29c0.79,0.7799,1.58,1.58,2.37,2.3999
	c1.53-1.3999,2.96-3.02,4.94-3.77c3.22,0.6201,6.47,0.41,9.69-0.12c3.33-0.7,5.72,2.26,8.01,4.17c-0.03,2.12-0.04,4.26-0.05,6.41
	c0.97,0.45,1.93,0.96,2.87,1.5c1.06-0.9,2.41-1.0801,3.1-2.5601c0.42,0.6,1.26,1.78,1.68,2.38c2.11,0.05,4.23,0.14,6.34,0.26
	c0.16,2.9401,0.32,5.89,0.6,8.84c1.7-0.0499,3.4-0.0699,5.1-0.09c0.42,0.46,1.24,1.38,1.66,1.8301c6.22-0.15,12.44,0.23,18.66,0.25
	c2.41,0.09,6.37,0.6799,6.07,3.9099c-0.27,8.6801,0.55,17.4301-0.93,26.04c-0.24,7.67-1.08,15.3199-0.9,23
	c0.09,12.66-0.44,25.3099-0.24,37.97c0.23,6.02-0.73,12.17,0.85,18.0801c13.17-0.65,26.3,0.98,39.47,0.59
	c-0.75-3.0601-1.02-6.1901-1.06-9.3201c1.44-0.5199,2.88-1.0299,4.33-1.5199c0.09,3.5199,0.17,7.0399,0.33,10.5699
	c3.5,0.05,8.08,2.01,10.91-0.48c0.58-7.63-0.32-15.3101,0.58-22.92c1.38-12.6-0.18-25.2999,1.13-37.89
	c0.93-11.33-0.13-22.72,1.05-34.0299c0.29-15.3401,0.38-30.6901,1.13-46.01c-4.52-0.8501-9.12-1.14-13.71-1.04
	c-5.31,0.12-10.55-0.85-15.84-1.08c-3.96-8.5701-4.14-18.65-9.62-26.51c-0.76-2.9501-0.92-6.01-1.51-8.9801
	c2.34-0.7699,4.87-1.12,7-2.3799c1.42-1.6001,2.82-3.2101,4.37-4.67c0.74,1.4299,1.48,2.87,2.21,4.33c2.68-2.4,3.9-5.71,3.76-9.26
	c-2.02-0.37-6.14-0.2899-5.39-3.4099c1.87-1.65,4.4-2.15,6.74-2.76c1.38-0.91,2.75-1.8101,4.13-2.7001
	c0.35,0.74,1.03,2.2001,1.37,2.9301c1.12-0.86,2.23-1.72,3.33-2.59c0.27-3.2101,2.58-5.4301,5-7.26c-3,0-5.82-0.92-8.54-2.04
	c-0.03-0.64-0.1-1.92-0.13-2.5601c1.24-0.6199,2.51-1.1699,3.76-1.7399c0.45-3.31,0.82-6.63,1.25-9.94
	c3.37,2.08,1.61,6.68,2.27,9.95c2.51-0.6201,4.98-1.6,6.44-3.86c1.33-1.31,2.69-2.59,4.11-3.79c1.23-2.85,3.01-5.56,3.31-8.7
	c1.55-10.59,0.41-21.33,1.88-31.92c-0.39-10.4,1.47-20.7,1.08-31.09c-0.13-7.03,1.17-14,0.99-21.02
	c-0.23-9.71,2.01-19.2401,2.26-28.92c0.78-8.67,0.11-17.38,0.61-26.06c1.33-0.01,2.67,0,4.01,0.02c0.24,0.7,0.73,2.11,0.97,2.81
	c-0.77,7.36-0.34,14.77-0.76,22.16c-0.56,7.07,1.43,13.98,1.68,21.03c0.51,13.99,0.01,28.01,0.4,42.02
	c0.18,7.01-0.29,14.04,0.53,21.03c0.8,10-0.07,20.06,0.45,30.07c0.81,3.26,2.5,6.24,3.47,9.48c0.61,0.03,1.84,0.09,2.46,0.12
	c0.02,0.7401,0.05,2.21,0.06,2.94c1.25-0.33,2.5-0.66,3.75-0.98c1.15-2.12,3.12-1.36,4.78-0.38c0.41-0.1,1.25-0.32,1.66-0.43
	c0,1.96,0,3.93-0.02,5.9c1.57,0.52,3.13,1.05,4.72,1.5599c0,0.5901,0.01,1.76,0.01,2.3401c-2.09,0.8099-4.17,1.63-6.25,2.47
	c-0.5-0.3-1.5-0.9-2-1.21c-2.81,1.45-5.58,3.1899-7.59,5.6799c-0.39-2.09-1.05-4.08-1.89-6.01c-0.3,3.3-0.4,6.63-0.26,9.9601
	c0.59-1.04,1.28-1.9901,2.08-2.8501c0.99,1.14,1.98,2.3,3.02,3.4401c0.42-0.16,1.28-0.47,1.7-0.63c2.16-0.35,4.31-0.76,6.38-1.51
	c2.52,4.11,7.77,2.85,11.82,3.12c1.32,0.39,2.65,0.77,3.99,1.1801c0.02,1.0299,0.03,2.09,0.05,3.1499
	c-2.3,0.8201-4.35,2.15-6.16,3.77c-0.12-0.5-0.37-1.49-0.49-1.99c-2.78,0.62-5.61,0.89-8.45,0.86c0.01,0.8301,0.02,2.49,0.03,3.3201
	c0.37-0.02,1.11-0.0601,1.48-0.0801c0.52,1.66,1.05,3.3101,1.6,4.98c0.48-0.3999,1.43-1.22,1.91-1.63
	c0.35,0.3201,1.04,0.9501,1.39,1.26c0.7-1.37,1.87-2.5,3.45-1.5399c6.05,1.61,12.12,3.61,18.42,3.7999
	c-1.32,5.27-3.27,10.36-5.7,15.2201c-3.76,6.0699-4.59,13.4099-7.28,19.88c-3.79,1.7899-8.18,1.61-12.29,1.7699
	c-5.74,0.05-11.43,0.8201-17.16,1.02c-1.16,15.61-0.44,31.28-0.79,46.92c0.15,25.64,0.12,51.28,0.24,76.9199
	c-0.09,6.3601,0.95,12.6801,0.76,19.05c1.32-0.01,2.64,0,3.97,0.03c0,1.76,0,3.53,0,5.3199c0.6-0.09,1.79-0.2799,2.39-0.37
	c0.31,0.61,0.93,1.8401,1.24,2.4601c1.94-1.13,4.02-1.9501,6.06-2.8501c0.08,1.4801,0.15,2.9701,0.22,4.4801
	c6.08,1.48,12.36,0.84,18.55,0.9399c0.28-4.02,0.54-8.0601-0.19-12.03c-0.44,2.22-0.84,4.4301-1.27,6.6801
	c-1.07-0.64-1.62-1.54-1.65-2.6901c-0.29-4.45,0-8.9199,0.06-13.36c1.6,0.54,3.13,1.29,4.78,1.7001l-0.78-1.4701
	c0.76,0.28,2.29,0.8301,3.05,1.11c0.99,5.1201-0.59,10.2201-1.3,15.28c1.13-0.35,2.27-0.6699,3.41-0.97
	c0.11,1.3101,0.24,2.66,0.36,4.02c-1.39,0.49-2.78,1.01-4.16,1.5499c5.1,0.14,10.26,0.03,15.24,1.3101
	c-0.01,2.95-0.01,5.91-0.01,8.88c3.01-0.02,6.03,0.1799,9.03-0.1901c2.98-0.5399,5.91-1.6399,8.99-1.22
	c7.68-0.9199,15.43-0.38,23.15-0.5599c5.13-6.16,9.88-12.63,15.04-18.77c13.92-16.49,26.83-33.8201,40.84-50.23
	c3.24-4.16,6.42-8.38,10.26-12c12.2-1.28,24.47-1.5701,36.67-2.8301c6.01-0.33,11.96-1.3999,17.99-1.26
	c10.68-0.83,21.34-2,32.06-2.1399c6.93-1.38,14.09-0.1201,20.97-1.8201c-0.04-4.1799,0.45-8.61-0.81-12.5699
	c0.73-3.4301,1.77-6.88,1.27-10.4401c-1.15-13.71,1.32-27.41,0.44-41.12c-0.45-3.08-4.52-4.97-3.81-8.2999
	c1.84-1.79,3.97-3.2401,5.95-4.8501c-0.09-11.24-0.0099-22.48-0.04-33.72c-0.08-6.34,0.96-12.63,0.85-18.96
	c0-22.9901,0.28-45.97,0.11-68.95c-2.3-2.62-4.4-5.4-6.44-8.2c2.84-2.41,5.64-4.85,8.5-7.22c-0.06-16.92,0.01-33.84-0.02-50.75
	c0.26-1.6-0.68-2.79-1.88-3.65c-0.02-0.38-0.07-1.14-0.09-1.52c1.29-1.08,3.55-1.5,2.97-3.66c-0.02-18.87,0.05-37.75-0.03-56.62
	c-1.52-1.94-3.18-3.81-4.3-6c-0.57-2.5,0.26-5.08,0.47-7.58c0.97-5.61,0.99-11.43,2.85-16.86c8.24-21.23,17.22-42.16,25.73-63.28
	c2.8101-6.22,2.2401-13.19,2.3-19.83c0.28-1.91-1.17-3.2599-2.14-4.68c0.06-1.33,0.19-2.65,0.31-3.96c1.2-0.97,2.46-1.85,3.76-2.68
	c1.34,1.23,2.71,2.45,3.89,3.86c0.89,2.34-1.4301,3.95-2.77,5.47c-0.41,5.39,0.57,10.72,0.92,16.08c0.06,4.1,2.31,7.65,3.58,11.44
	c5.51,14.99,11.66,29.73,17.23,44.7c0.77,2.3,2.55,4.01,3.9,5.98c2.83,5.16,2.06,11.23,2.96,16.86c0.42,5.27,1.92,10.53,1.31,15.84
	c-1.08,2.49-3,4.49-4.75,6.53c-0.41,19.34-0.1899,38.7-0.18,58.05c0.8,0.72,1.69,1.42,2.7,1.9c-0.8,1.53-1.56,3.08-2.31,4.64
	c5.47,0.16,10.95-0.22,16.43,0c4.27-5.79,6.64-12.67,10.19-18.87c4.48-7.93,8.31-16.2,12.83-24.1
	c4.48-7.03,4.24-15.6899,6.72-23.4399c8.9901-43.3701,18.66-86.59,27.87-129.91c8.55-39.77,17.71-79.42,25.8701-119.27
	c4.23-18.48,8-37.0699,12.39-55.52c0.82-3.79,0-7.63-0.96-11.3c-1.33-1.75-2.61-3.52-3.94-5.2401c0.09-3.53,1.7-6.69,4.3-9.03
	c0.05-0.47,0.16-1.41,0.21-1.88c0.44-0.43,1.33-1.28,1.77-1.71c0.25-3.23-0.25-6.37-2.97-8.43c-0.05-0.56-0.15-1.68-0.2-2.24
	c0.8,0.01,2.39,0.04,3.19,0.06c-1.11-1.97-2.27-3.92-3.42-5.85c0.87,0.08,2.62,0.24,3.5,0.33c-1.19-2.14-2.39-4.28-3.55-6.41
	c0.9301,0.14,2.8,0.42,3.73,0.56c-1.25-2.25-2.53-4.5-3.73-6.77c1.15,0.43,3.46,1.28,4.61,1.71c-0.46-2.95-1.73-6.06-0.29-8.95
	c-2.51-1.75-4.63-3.96-5.76-6.84c-0.55-1.78-2.6299-1.9-4.03-2.64c-0.03-0.47-0.08-1.43-0.1-1.9c1.29-0.02,2.6-0.04,3.91-0.06
	c0.55-1.58,1.13-3.15,1.72-4.72c1.11-0.48,2.22-0.97,3.35-1.44c1.14-1.65,0.54-4.57,2.75-5.29c1.5,1.36,1.05,3.55,1.4,5.36
	c3.08,1.74,5.22,4.46,5.79,8.01c1.26,0.14,2.53,0.28,3.81,0.43c0.01,0.56,0.04,1.68,0.06,2.24c-1.3-0.08-2.58-0.15-3.85-0.21
	c-0.63,3.29-2.83,5.55-5.91,6.69c0.04,2.86-0.01,5.73-0.09,8.59c0.81,0.17,2.4399,0.5,3.25,0.66c-0.35,1.44-0.98,2.76-2.1201,3.76
	c0.45,1.22,1.58,2.24,1.7,3.57c-0.65,0.81-1.21,1.69-1.69,2.61c0.66,1.09,1.42,2.13,2.03,3.27c-0.55,0.45-1.66,1.35-2.21,1.81
	c0.79,1.24,1.34,2.65,2.13,3.92c-1.16,1.34-3.27,2.35-3.16,4.4c-0.26,2.54,0.53,5.02,1.21,7.44c1.86,1.31,3.96,2.73,4.37,5.17
	c1.38,3.4-1.13,6.52-3.06,9.08c-0.49,1.53-1.19,2.97-2.17,4.2599c0.69,7.36,2.01,14.66,4.29,21.71c-0.1,0.32-0.3,0.95-0.41,1.27
	c3.47,13.14,5.04,26.69,8.28,39.89c6.9901,36.34,14.69,72.54,21.97,108.83c5.23,27.02,11.07,53.94,16.04,81.01
	c5.55,26.66,10.83,53.38,16.05,80.08c7.5099,14.33,16.11,28.09,23.65,42.41c5.29-0.13,10.58,0.08,15.87-0.06
	c1.22,0.06,2.25-0.38,3.08-1.31c-0.53-1.74-1.44-3.33-2.31-4.9c0.81-0.91,1.64-1.8101,2.48-2.7c1.22-12.46,0.41-25.01,0.07-37.49
	c0.36-6.79,0.9-13.63,0.25-20.41c-1-2.58-3.06-4.59-4.68-6.79c-0.23-4.78,0.2-9.55,0.87-14.28c0.44-10.33,6.33-19.19,9.7-28.7
	c2.35-5.04,4.61-10.11,6.66-15.28c4.55-10.68,9.47-21.21,13.48-32.11c0.96-6.38,1.43-12.83,1.58-19.27
	c-0.84-1.27-1.69-2.52-2.41-3.84c-0.48-1.94,0.71-3.85,2.55-4.49c1.85-1.25,3.39,1.04,4.99,1.73c-0.31,2.08-0.27,4.46-2.29,5.74
	c0.29,7.9-1.62,16.54,2.58,23.74c0.56,1.59,1.12,3.19,1.65,4.81c4.24,11.94,9.36,23.55,13.75,35.44c2.95,8.22,6.96,16.06,9.54,24.42
	c0.66,7.89,1.8199,15.79,1.39,23.74c-1.6,1.91-3.2,3.83-4.91,5.65c-0.15,19.58-0.04,39.16-0.06,58.75c1.15,0.78,2.35,1.54,3.51,2.37
	c-0.83,0.88-1.66,1.77-2.48,2.66c-0.25,6.83-0.64,13.65-0.2,20.48c-0.64,9.03-0.52,18.07-0.7,27.11c0.08,2.36-0.19,5.21,1.77,6.96
	c2.15,1.96,4.4,3.82,6.51,5.84c-1.9,2.84-4.08,5.47-6.31,8.06c-0.13,31.02-0.2,62.05-0.89,93.06
	c-0.25,8.6901-0.31,17.39-0.1899,26.09c-0.14,4.03,4.33,5.62,6.14,8.7101c-1.15,2.09-2.59,4.01-4.13,5.83
	c-0.17,13.47,0.13,26.9401-0.12,40.41c0.1,4.25-1.37,8.83,0.8,12.79c-0.36,0.3799-1.09,1.1399-1.45,1.5199
	c-0.27,9.89,0.34,19.77,0.01,29.66c-0.5,12.34-0.21,24.6901-0.28,37.04c0.05,4.65-0.5,9.4199,0.86,13.96
	c4.82,0,9.65-0.04,14.48,0.11c-1.21,3.8201-2.05,7.77-2.52,11.77c0.7-1.12,1.4-2.23,2.11-3.3199c0.06,1.75,0.15,3.5399,0.26,5.3199
	c9.83,0.75,19.73,0.14,29.54,1.28c-0.59,4.02-0.55,8.08-0.09,12.12c3.04,0.28,6.08,0.58,9.13,0.7999c1.24-2.34,2.76-4.37,5.74-4.09
	c-0.96,1.12-1.96,2.21-2.93,3.3301c0.9,0.25,1.82,0.5199,2.75,0.7999c0.86-1.4299,1.79-2.7999,2.82-4.09
	c1.29,0.35,2.63,0.51,3.95,0.86c0.82-0.14,2.46-0.4,3.27-0.54c-0.44,0.75-1.32,2.23-1.77,2.98c1.4,1.1801,2.77,2.4301,4.04,3.78
	c0.46-0.26,1.38-0.78,1.84-1.0499c1.47,0.36,2.95,0.8199,4.5,0.8899c9.72,0.03,19.51,2.42,29.18,0.2401
	c-0.56-2.8501-1.61-6.0901,0.45-8.62c2.42-3.03,5.02-5.9901,6.2-9.78c1.18,3.88,3.88,6.9399,6.18,10.1899
	c0.85,2.42,0.87,5.0801,1.4,7.61c9.0499,1.9501,18.4-0.5399,27.5699-0.34c12.01-0.54,24.14,0.3,36.0801-1.22
	c1.25-2.25,1.49-5,2.7999-7.22c1.02-0.3301,2.0801-0.55,3.1801-0.65c4.22-0.39,7.21-3.79,10.58-5.98
	c5.55-0.0601,11.78-0.3301,16.02,3.9399c3.05,0.0701,6.11,0.0601,9.1801,0.15c0.2799,2.22,0.5699,4.45,0.88,6.7
	c0.61-0.52,1.24-1.02,1.88-1.5c-0.14-0.86-0.42-2.58-0.5601-3.4399c0.3199-0.54,0.96-1.61,1.28-2.15
	c-0.0701-3.75-0.13-7.49-0.3301-11.22c-0.83-1.4301-1.61-2.85-2.3899-4.27c5.1899-0.08,10.47,0.05,15.5399-1.3101
	c6-1.61,12.3301-1.1899,18.38-0.0299c0.39-1.2201,0.8-2.4301,1.24-3.62c0.14,0.88,0.4301,2.6499,0.5701,3.5399
	c4.6-0.0299,9.21,0.26,13.8199-0.0599c1.6901,0.1,1.66-2.22,2.48-3.17c0.65,1.02,0.9401,2.23,1.65,3.27c5.5,0.13,11,0.11,16.49,0.65
	c-3.9199,6.47-2.99,14.1899-1.48,21.23c14.14-0.8,28.3199-0.67,42.4-2.2c0.38-3.7201,0.52-7.4701,1.51-11.0901
	c5.62-10.33,9.1599-21.62,14.0399-32.2999c4.8301-11.54,8.78-23.4401,14.13-34.77c2.75,8,6.53,15.58,9.7001,23.41
	c4.15,10.1499,8.61,20.1599,12.77,30.3099c1.87,4.1801,3.13,8.71,6.0199,12.36c1.3101,3.3101,0.1901,7.53,2.54,10.3101
	c2.09,0.0599,5.09,0.9399,6.37-1.28c0.4301-5.22,1.41-10.41,1.28-15.65c-0.4301-6.6899,1.5599-13.25,1-19.9399
	c0.29-9.87-2.5-19.98,0.38-29.66c0.45,1.62,0.88,3.24,1.35,4.88c0.58-18.08,0.0601-36.17,0.3101-54.25
	c0.3199-3.88-2.02-7.25-2.15-11.0601c2.03-1.38,4.22-3.21,4.0599-5.9299c0.05-6.5601,0.39-13.16-0.5299-19.66
	c2.12-13.37,1.48-26.89,1.5499-40.36c-0.13-2.42,0.79-4.65,1.65-6.84c-1.51-7.76,0.01-15.6901-1.03-23.5
	c0.86-4.0601-0.78-8.84,1.76-12.36c0.91,4.16-0.28,8.8,2.0601,12.58c1.4299-7.05-0.8501-14.66,2.1599-21.41
	c0.16,1.15,0.5,3.44,0.67,4.59l0.91-0.08c-0.39-7.44-2.28-14.96-0.61-22.37c1.59-5.75,2.0399-11.78,1.83-17.72
	c0.61-4.47,0.77-8.98,0.62-13.47c-0.45-0.41-1.34-1.24-1.78-1.65c-0.0399-1.29-0.0599-2.56-0.08-3.82
	c0.92-1.19,1.85-2.37,2.8199-3.52c0.42-22.61-0.46-45.23,0.1901-67.84c0.72,0.11,2.15,0.33,2.86,0.44
	c0.03-5.48-0.36-11,0.55-16.4301c0.5699-3.49,0.58-7.03,0.24-10.52c-1.7001-8.01-0.8501-16.39,0.74-24.35
	c0.45,2.83,0.72,5.72,0.8099,8.61c0.67-3.15,1.6801-6.35,1.02-9.6c-1.01-6.08,1.22-11.99,2.41-17.86
	c-0.11-0.38-0.3301-1.12-0.4501-1.5c2.11-8.17,1.25-16.6,2.25-24.88c0.51-0.39,1.54-1.18,2.0601-1.57
	c0.91-5.99-0.89-12.21,1.25-18.01c1.4299-4.05,0.9399-8.41,1.64-12.59c0.9399-3.11,1.6799-6.27,2.51-9.4
	c1.24,0.06,2.49,0.13,3.76,0.21c0.1599,2.83,0.2799,5.67,0.4299,8.51c0.4301,0.43,1.28,1.29,1.7001,1.71
	c-0.0701,4.12,0.74,8.2,0.6899,12.32c1.04,2,2.13,3.99,3.34,5.91c0.0801-7.89,0.04-15.78,0.02-23.67c0.01-4.83-0.52-9.81,1.29-14.41
	c1.73-4.87-0.52-10.55,2.33-15.07c0.37,1.94,0.8,3.88,1.1801,5.84c-0.2101-3.51-0.5701-7.03-0.2101-10.53
	c0.78-6.28,0.04-12.64,1-18.91c1.0901-1.1201,2.17-2.2401,3.28-3.34c0.7101,0.1,2.12,0.32,2.8301,0.43
	c1.59,2.22,2.6899,4.74,3.1699,7.44c0.05-5.12,0.4501-10.24-0.15-15.33c0.8401-1.69,0.37-5.55,3.03-5c1.02,2.38,1.4,4.95,1.05,7.51
	c-0.03,5.89,0.77,11.74,1.36,17.59c1.64,0.68,3.33,1.21,5.0699,1.7c0.4501-0.19,1.3501-0.56,1.8-0.75
	c-0.01-2.28-0.01-4.54-0.01-6.81c-1.02-0.47-2.03-0.94-3.02-1.4c-0.08-1.3-0.14-2.59-0.1899-3.87c1.71-0.02,3.45-0.02,5.21-0.02
	c0.09-2.73-0.17-5.43-0.78-8.08c-0.7999-0.0099-2.4099-0.03-3.21-0.04c-0.02-1.29-0.02-2.57,0-3.84c1.65-0.03,3.3099-0.04,4.99-0.04
	c0.52-2.66,0.86-5.35,0.27-8.02c-0.8-0.05-2.4-0.15-3.2001-0.2c-0.0499-1.31-0.08-2.62-0.09-3.91c1.65,0.05,3.3201,0.1,5.02,0.17
	c-0.01-2.63-0.01-5.25,0.01-7.8701c-0.76-0.09-2.26-0.27-3.02-0.37c-0.11-1.44-0.2-2.87-0.27-4.3c1.76-0.06,3.5701-0.18,5.3401,0.13
	c-0.04-2.37-0.0601-4.74-0.0901-7.09c-1.23-0.65-2.74-0.79-3.6899-1.82c-0.22-1.16-0.38-2.32-0.48-3.47
	c1.73-0.06,3.48,0.05,5.24-0.01c0-2.32,0.01-4.64,0.01-6.95c-1.05-0.5-2.0801-1-3.0901-1.48c-0.0399-1.27-0.0599-2.53-0.0599-3.79
	c1.6699-0.01,3.36-0.01,5.0699-0.01c0.01-2.19,0.03-4.37,0.03-6.54c-2.01-1.23-3.88-2.71-4.3101-5.15c1.89-0.33,4-0.03,5.79-0.86
	c0.8101-1.97,0.47-4.22,0.6901-6.3c-1.37-0.59-2.7101-1.21-4.0601-1.76c-0.0699-1.13-0.12-2.25-0.16-3.36
	c1.66-0.03,3.3401-0.05,5.03-0.0601c0.04-2.6299,0.09-5.2599,0.14-7.8799c-0.78-0.05-2.34-0.16-3.13-0.21
	c-0.01-1.41,0-2.81,0.02-4.2c1.64,0.07,3.3,0.15,4.97,0.23c0-2.58,0.01-5.15,0.03-7.72c-0.77-0.09-2.29-0.25-3.0601-0.33
	c-0.0399-1.61-0.0599-3.21-0.0599-4.8c1.63-0.02,3.28-0.03,4.9299-0.03c-0.0199-2.19-0.0199-4.3701,0-6.54
	c-1.2899-0.61-2.5599-1.25-3.8199-1.84c-0.02-1.22-0.01-2.4301,0.01-3.64c1.65-0.01,3.3199-0.01,5-0.01
	c0.02-2.25,0.04-4.5,0.0699-6.74c-1.0699-0.47-2.11-0.93-3.14-1.38c-0.0299-1.29-0.0499-2.57-0.0499-3.85
	c1.7-0.04,3.42-0.07,5.15-0.11c-0.11-2.11,0.1899-4.31-0.38-6.35c-1.6901-1.55-3.4701-3.05-4.11-5.35
	c2.1499-0.17,4.3199-0.31,6.5-0.46c-0.3301-1.72-0.5901-3.43-0.78-5.15c0.2-0.41,0.6-1.22,0.7999-1.62
	c-1.37-0.5-2.73-0.99-4.0599-1.46c-0.02-1.22-0.02-2.44,0-3.65c1.67,0.01,3.35,0.02,5.0599,0.05c-0.09-2.56-0.1899-5.12-0.2899-7.67
	c-0.7001-0.1-2.0801-0.3-2.78-0.4c-0.02-1.49-0.02-2.96-0.01-4.43c1.7,0.17,3.4,0.33,5.14,0.5c-0.17-1.81-0.17-3.65-0.62-5.4
	c-0.91-2.26-3.14-3.84-3.65-6.27c1.37-1.48,3.4501-1.15,5.27-1.41c0.49-1.12,0.13-2.38,0.61-3.51c-0.46-0.96-0.87-1.92-1.25-2.88
	c-0.86-0.55-1.7-1.09-2.52-1.62c0.01-1.27,0.04-2.53,0.0901-3.79c1.6899-0.03,3.3999-0.06,5.1299-0.08
	c0.14-3.19-0.7699-6.26-3.1-8.51c-0.13-1.14-0.24-2.28-0.33-3.41c1.77-0.05,3.5699-0.11,5.38-0.16c-0.12-2.45-0.61-4.84-1.34-7.16
	c-1.76-0.95-2.63-2.68-3.24-4.48c1.84-0.13,3.71-0.22,5.59-0.3c0.09-1.59,0.22-3.17,0.37-4.74c-1.17-1.55-2.25-3.14-3.42-4.66
	c-0.0399-0.58-0.11-1.73-0.14-2.3c1.75-0.38,3.53-0.75,5.3101-1.14c0.09-3.03-0.87-5.8-3.24-7.75c-0.11-1.15-0.1901-2.3-0.26-3.44
	c1.6899-0.24,3.4199-0.46,5.14-0.7c-0.02-1.48-0.02-2.94-0.01-4.4c-2.14-1.79-3.6901-4.1-4.3-6.83c1.8-0.31,3.64-0.62,5.47-0.92
	c0.0601-1.47,0.13-2.94,0.2301-4.4c-1.0801-1.29-2.17-2.57-3.2301-3.86c-0.0199-0.71-0.0699-2.15-0.09-2.87
	c1.6801-0.29,3.39-0.57,5.11-0.8c-0.0699-1.77-0.12-3.53-0.1699-5.28c-2.64-1.32-3.29-3.87-3.1001-6.62
	c1.55-0.17,3.14-0.29,4.7001-0.59c0.9399-4.13,1.76-8.4,1.4-12.65c-0.2101-2-2.2001-3.02-3.38-4.39c1.73-2.34,4.59-4.17,4.8199-7.3
	c0.52-3.09-0.29-6.19-0.58-9.26c-1.3,0-2.5901,0.01-3.86,0.03c-1.77-3.45-2.8301-7.19-3.15-11.05c2.62-0.18,5.26-0.27,7.91-0.28
	c-0.3201-2.33,0.1799-5.12-1.5-7.01c-1.3601-0.65-2.88-0.9-4.29-1.28c0.0499-1.46,0.08-2.93,0.28-4.37
	c2.1699-1.42,4.71-2.13,7.1-3.14C1423.0699,351.77,1421.09,348.12,1423.36,345.28 M1427.39,582.61c1.35-3.44,0.58-7.18,0.13-10.72
	C1426.8199,575.42,1426.92,579.05,1427.39,582.61 M1597.4,586.65c-0.5601,4.11-0.65,8.3-0.04,12.41
	C1598.4399,595.02,1598.24,590.71,1597.4,586.65 M1660.29,702c-0.63,1.31-0.61,3.9,0.6,4.73
	C1661.4,705.42,1661.8199,702.55,1660.29,702 M1423.22,708.22C1423.78,708.83,1423.78,708.83,1423.22,708.22 M1433.21,711.22
	C1433.79,711.82,1433.79,711.82,1433.21,711.22 M1374.1801,715.87c0.58,1.82,1.7799,3.39,2.7999,5c1.0801-2.99,1.46-6.62-1.37-8.82
	C1375.0699,713.3,1374.53,714.56,1374.1801,715.87 M1480.2,714.64c-1.76,2.52-1.1499,5.64-1.2699,8.52
	c1.0599-0.09,2.1799,0.04,3.25,0.27c-0.14-2.08-0.13-4.22-0.9501-6.16c0.11-0.24,0.35-0.71,0.46-0.95
	C1481.3199,715.9,1480.58,715.06,1480.2,714.64 M1433.35,720.06C1433.3199,723.36,1436.42,718.66,1433.35,720.06 M1422.25,721.07
	C1422.45,724.38,1425.2,719.48,1422.25,721.07 M1547.62,730.12C1547.8199,733.43,1550.53,728.5,1547.62,730.12 M1545.08,731.09
	C1543.54,734.05,1548.4,731.22,1545.08,731.09 M1434.21,732.25C1434.8101,732.85,1434.8101,732.85,1434.21,732.25 M1652.24,742.15
	c-1.39,0.7-1.45,1.38-0.17,2.03C1653.41,743.47,1653.47,742.8,1652.24,742.15 M1814.27,880.91c-1.96,7.21-3.66,14.6-3.42,22.13
	c0.14,13,0.1,26,0.22,39c1.2301-0.04,2.4901-0.11,3.77-0.22c1.25-1.54,1.91-3.52,3.2001-5.07c0.73,2.01,1.63,4.03,3.87,4.7
	c0.3199-11.81-0.17-23.62-0.12-35.42c-0.4601-9.76-0.8401-19.8-4.9-28.8701C1815.92,878.33,1814.66,879.38,1814.27,880.91
	 M1833.28,887.62c-0.27,1.67-0.7001,3.33-0.78,5.04c0.92,3.77-0.59,7.58-0.26,11.4c0.58,11.18,0.64,22.39,0.78,33.59
	c1.64,0.12,3.2999,0.21,4.99,0.29c0.04-9.96-0.09-19.93-0.12-29.89C1838.1801,901.01,1836.79,893.77,1833.28,887.62 M1794.92,903.98
	c0.0399,11.55,0.09,23.1,0.08,34.66c1.74,1.09,3.42,2.29,5.05,3.59c-0.13-12.75,0.0599-25.5-0.2001-38.24
	c-0.21-4.53,0.6801-9.28-1.11-13.59C1796.3199,894.49,1794.89,899.2,1794.92,903.98 M264.21,1028.9399
	c-1.95,2.27-2.49,5.1801-2.66,8.0901c2.56,0.01,5.13-0.01,7.69-0.03c0.48-2.64,0.77-5.3199,0.93-7.99
	C268.18,1028.98,266.19,1028.97,264.21,1028.9399 M251.01,1045.96c0,0.67-0.01,2.03-0.01,2.7101c-0.75,0.12-2.24,0.36-2.99,0.48
	c0.34,0.9399,0.66,1.91,0.97,2.89c1.61,0.2999,3.25,0.08,4.88,0.0499c0.79-2.0399,1.26-4.14,0.03-6.11
	C253.17,1045.98,251.73,1045.96,251.01,1045.96 M260.65,1046.73c0.02,0.62,0.06,1.87,0.08,2.5c-0.53-0.21-1.58-0.62-2.11-0.8199
	c-0.18,0.71-0.36,1.4299-0.55,2.1599c2.03-1.0499,3.93,0.7201,5.49,1.92c0.16-2.22,0.13-4.46,0.33-6.67
	C262.82,1046.15,261.74,1046.45,260.65,1046.73 M268.31,1046.38c-0.81,1.51-0.79,3.63-0.07,5.2
	C269.53,1050.8101,269.79,1046.97,268.31,1046.38 M288.97,1046.46c-1.01,0.9701,0.31,3.3501,1.66,2.51
	C291.61,1047.96,290.34,1045.59,288.97,1046.46 M295.06,1045.67c-0.29,1.6-0.57,3.21-0.85,4.83c1.5,0.09,3.02,0.24,4.54,0.17
	c-0.06-1.2101-0.14-2.4-0.24-3.5701C297.78,1045.9301,296.16,1046.23,295.06,1045.67 M127.23,1114.2
	C127.82,1114.8101,127.82,1114.8101,127.23,1114.2 M141.35,1119.16c-0.37,1.6699,0.21,2.24,1.76,1.71
	C143.48,1119.17,142.9,1118.6,141.35,1119.16 M5.74,1125.71c-1.54,1.63,0.03,3.7101,0.42,5.51c1.93-0.12,3.87-0.2,5.8-0.27
	c0.38-2.71,0.44-5.63,2.15-7.8999c-0.66-0.7101-1.31-1.41-2.01-2.04C9.62,1121.9301,7.32,1123.5601,5.74,1125.71 M904.09,1240.37
	C902.55,1243.36,907.39,1240.51,904.09,1240.37 M901.16,1241.6899c-0.91,1.1901-0.68,1.89,0.69,2.1101
	C902.72,1242.58,902.49,1241.88,901.16,1241.6899 M910.27,1241.46c-0.84,0.7001-0.95,3.1801,0.48,3.16
	C911.56,1243.88,911.67,1241.4301,910.27,1241.46z"/>
</svg>
